<svg width="28" height="28" viewBox="0 0 28 28" fill="none" xmlns="http://www.w3.org/2000/svg">
<g id="Icon" clip-path="url(#clip0_405_9370)">
<path id="Vector" d="M19.7413 20.5271C19.7679 20.4472 19.7812 20.3673 19.7946 20.3007C19.981 19.5414 20.0743 18.7555 20.0743 17.9696C20.0743 17.823 20.0743 17.6632 20.0743 17.5167C20.0743 17.3968 20.061 17.2902 20.0477 17.1703C19.6614 17.7165 19.2218 18.236 18.7422 18.7155C17.4768 19.981 15.9982 20.9134 14.4263 21.5128C14.3464 21.5395 14.2532 21.5661 14.1732 21.6061C13.5072 21.8459 12.8279 22.019 12.1352 22.1389C11.4425 22.2588 10.7498 22.3121 10.0572 22.3121C9.80407 22.3121 9.55098 22.3121 9.29789 22.2854C9.16468 22.2854 9.01815 22.2588 8.88495 22.2588C8.23224 22.1922 7.5662 22.0723 6.92681 21.9125H6.91349C4.88875 21.3796 2.95726 20.314 1.3721 18.7155C0.87924 18.2226 0.452979 17.7165 0.0666804 17.1703C0.0400391 17.4367 0.0400391 17.7031 0.0400391 17.9696C0.0400391 20.4472 0.945843 22.9248 2.77077 24.8563C2.83737 24.9229 2.90398 25.0029 2.97058 25.0695C3.03718 25.1361 3.11711 25.2027 3.18371 25.2693C5.11521 27.0942 7.57952 28 10.0705 28C11.2827 28 12.4948 27.7869 13.6404 27.3473C14.9192 26.8544 16.1314 26.0951 17.1704 25.0561C18.4758 23.7507 19.3417 22.1922 19.7812 20.5271H19.7413Z" fill="#0C0C1C"/>
<path id="Vector_2" d="M8.27233 7.47288C8.27233 7.47288 8.24569 7.60609 8.23237 7.67269C8.07252 8.33873 7.97928 9.0314 7.95264 9.72407C7.95264 9.83064 7.95264 9.9372 7.95264 10.0438C7.95264 10.1903 7.95264 10.3501 7.95264 10.4967C7.95264 10.6032 7.96596 10.7231 7.97928 10.8297C8.36558 10.2835 8.80516 9.77736 9.2847 9.28449C10.5502 8.01903 12.0288 7.08658 13.6006 6.48715C13.6805 6.46051 13.7471 6.43387 13.827 6.40723C13.8537 6.40723 13.867 6.39391 13.8803 6.38059L13.9469 6.35395C13.9469 6.35395 13.9869 6.34063 14.0135 6.32731H14.0402C14.0402 6.32731 14.1201 6.30067 14.1601 6.27402C14.2133 6.2607 14.2533 6.24738 14.3066 6.23406H14.3599C14.3599 6.23406 14.3998 6.20742 14.4131 6.20742H14.4398C14.4398 6.20742 14.4531 6.20742 14.4664 6.1941H14.4931C14.5863 6.15414 14.6929 6.1275 14.7861 6.10086C14.8661 6.07421 14.946 6.06089 15.0259 6.04757C15.0525 6.04757 15.0659 6.04757 15.0792 6.03425C15.0925 6.03425 15.1191 6.03425 15.1325 6.02093C15.1724 6.02093 15.2124 6.00761 15.2524 5.99429C15.3323 5.98097 15.4122 5.95433 15.4921 5.94101C15.572 5.92769 15.652 5.91437 15.7319 5.90105C15.7719 5.90105 15.7985 5.88773 15.8385 5.87441H15.8651C15.8651 5.87441 15.9317 5.86108 15.9717 5.84776C16.0516 5.83444 16.1315 5.82112 16.2114 5.8078C16.3713 5.78116 16.5311 5.76784 16.691 5.75452C16.9308 5.72788 17.1705 5.71456 17.4103 5.70124C17.5968 5.70124 17.7833 5.70124 17.9698 5.70124C18.2362 5.70124 18.5026 5.70124 18.7557 5.72788C19.5416 5.78116 20.3408 5.90105 21.1001 6.11418H21.1134C23.1382 6.66032 25.0563 7.71265 26.6548 9.31113C27.1477 9.79068 27.5739 10.3102 27.9602 10.8563C27.9869 10.5899 27.9869 10.3235 27.9869 10.0571C27.9869 7.57945 27.0678 5.11513 25.2562 3.18363C25.1896 3.11703 25.1229 3.03711 25.0563 2.9705C24.9897 2.9039 24.9231 2.8373 24.8432 2.77069C22.925 0.919125 20.474 0 18.0097 0C16.7842 0 15.5587 0.21313 14.3998 0.652712C13.1077 1.14558 11.9089 1.90485 10.8699 2.94386C9.56444 4.24929 8.69859 5.8078 8.25901 7.47288H8.27233Z" fill="#0C0C1C"/>
<path id="Vector_3" d="M2.94386 17.1304C4.24929 18.4358 5.8078 19.3016 7.47288 19.7412C8.31208 19.9676 9.17793 20.0742 10.0304 20.0742C10.2969 20.0742 10.5633 20.0742 10.8164 20.0476C10.2702 19.6613 9.76403 19.2217 9.27117 18.7422C8.00571 17.4767 7.07326 15.9981 6.47383 14.4263C5.94101 13.0276 5.6746 11.5357 5.6746 10.0571C5.6746 9.00476 5.8078 7.93911 6.07421 6.91342C6.60704 4.87536 7.67269 2.95718 9.25785 1.35871C9.73739 0.879163 10.2436 0.452903 10.7631 0.0799244C10.7631 0.0799244 10.7897 0.0666038 10.803 0.0532831C10.5366 0.0266418 10.2702 0.0266418 10.0038 0.0266418C7.52617 0.0266418 5.04852 0.932446 3.11703 2.75737C3.05043 2.82398 2.9705 2.89058 2.9039 2.95718C2.8373 3.02379 2.77069 3.09039 2.70409 3.17031C0.905804 5.07517 0 7.55281 0 10.0304C0 11.2426 0.21313 12.4548 0.652712 13.6137C1.14558 14.8925 1.90485 16.1047 2.94386 17.1437V17.1304Z" fill="#0C0C1C"/>
<path id="Vector_4" d="M25.0696 10.883C23.7641 9.57755 22.2056 8.7117 20.5405 8.27212C19.9145 8.09895 19.2751 8.00571 18.6224 7.95243C18.4092 7.93911 18.1961 7.92579 17.9696 7.92579C17.8231 7.92579 17.6633 7.92579 17.5167 7.92579C17.3969 7.92579 17.2903 7.93911 17.1704 7.95243C17.7166 8.33873 18.2361 8.77831 18.7156 9.27117C19.3417 9.89724 19.9011 10.5899 20.3674 11.3092C20.8336 12.0285 21.2199 12.8011 21.5129 13.5871C22.0458 14.999 22.3122 16.4776 22.3122 17.9562C22.3122 18.3559 22.2855 18.7422 22.2589 19.1418C22.2323 19.4082 22.2056 19.6613 22.1523 19.9277C22.0857 20.3273 22.0058 20.7136 21.8992 21.0999C21.3664 23.138 20.3008 25.0695 18.7156 26.6546C18.2361 27.1342 17.7166 27.5737 17.1704 27.96C17.4368 27.9867 17.7032 27.9867 17.9696 27.9867C20.4473 27.9867 22.9116 27.0809 24.8431 25.2559C24.9097 25.1893 24.9763 25.1227 25.0562 25.0561C25.1362 24.9895 25.1894 24.9229 25.256 24.843C27.081 22.9115 27.9868 20.4472 27.9868 17.9696C27.9868 16.7574 27.7736 15.5452 27.3341 14.3996C26.8412 13.1075 26.0819 11.9087 25.0429 10.8696L25.0696 10.883Z" fill="#0C0C1C"/>
</g>
<defs>
<clipPath id="clip0_405_9370">
<rect width="28" height="28" fill="white"/>
</clipPath>
</defs>
</svg>
